<svg xmlns="http://www.w3.org/2000/svg" viewBox="0 0 12.88 15.7"><defs><style>.cls-1{fill:#aeaeae;}.cls-2{fill:#f7f5f5;}.cls-3{fill:#797979;}.cls-4{fill:#858585;}.cls-5,.cls-6{fill:none;stroke:#000;stroke-miterlimit:10;}.cls-5{stroke-width:0.02px;}.cls-6{stroke-width:0.04px;}</style></defs><title>Asset 3</title><g id="Layer_2" data-name="Layer 2"><g id="Layer_1-2" data-name="Layer 1"><polygon class="cls-1" points="0.83 5.6 8.58 0.77 7.76 0.06 7.83 0.02 8.72 0.78 7.96 1.26 8.18 3.75 5.04 5.75 6.41 7 8.01 5.97 9.56 4.97 11.16 4.03 11.93 3.54 12.86 4.34 4.98 9.49 4.05 8.62 4.87 8.1 1.71 5.16 0.9 5.67 0.83 5.6"/><polygon class="cls-2" points="8.58 0.77 0.83 5.6 0.02 4.84 7.76 0.06 8.58 0.77"/><polygon class="cls-3" points="4.87 8.1 4.05 8.62 3.87 13.64 1.64 11.47 1.71 5.16 4.87 8.1"/><polygon class="cls-3" points="4.05 8.62 4.98 9.49 4.68 15.69 3.82 14.84 3.87 13.64 4.05 8.62"/><polygon class="cls-4" points="12.86 4.34 12.05 10.68 4.68 15.69 4.98 9.49 12.86 4.34"/><polygon class="cls-3" points="0.89 11.97 0.07 11.16 0.02 4.84 0.83 5.6 0.89 11.97"/><polygon class="cls-4" points="0.9 5.67 1.71 5.16 1.64 11.47 0.89 11.97 0.9 5.67"/><polygon class="cls-4" points="6.41 7 5.04 5.75 8.18 3.75 8.01 5.97 6.41 7"/><polygon class="cls-1" points="11.16 4.03 9.56 4.97 8.18 3.75 7.96 1.26 8.64 1.84 11.16 4.03"/><polygon class="cls-3" points="8.18 3.75 9.56 4.97 8.01 5.97 8.18 3.75"/><polygon class="cls-4" points="7.96 1.26 8.72 0.78 8.64 1.84 7.96 1.26"/><path class="cls-5" d="M.83,5.6,8.58.77m0,0L7.76.06"/><path class="cls-6" d="M3.82,14.84l.86.85M4.05,8.62l.82-.52"/><line class="cls-5" x1="4.98" y1="9.49" x2="4.05" y2="8.62"/><path class="cls-6" d="M12.86,4.34l-.81,6.34m-12,.48L.89,12"/><line class="cls-5" x1="1.71" y1="5.16" x2="0.9" y2="5.67"/><line class="cls-6" x1="11.16" y1="4.03" x2="11.93" y2="3.54"/><line class="cls-5" x1="12.86" y1="4.34" x2="4.98" y2="9.49"/><path class="cls-6" d="M.89,12l.75-.49m0,0,2.23,2.16"/><line class="cls-5" x1="0.9" y1="5.67" x2="0.89" y2="11.97"/><line class="cls-6" x1="11.93" y1="3.54" x2="12.86" y2="4.34"/><path class="cls-5" d="M1.71,5.16l-.07,6.32M4.87,8.1,1.71,5.16M9.56,5,8.18,3.75"/><path class="cls-6" d="M4.68,15.69l7.37-5M5,5.75,6.41,7M7.83,0l.89.76"/><line class="cls-5" x1="4.98" y1="9.49" x2="4.68" y2="15.69"/><line class="cls-6" x1="0.02" y1="4.84" x2="7.76" y2="0.06"/><path class="cls-5" d="M8,6l.17-2.23m.54-3L8,1.26m.21,2.49L5,5.75"/><path class="cls-6" d="M8.64,1.84,8.72.78M0,4.84l.05,6.32"/><line class="cls-5" x1="0.83" y1="5.6" x2="0.02" y2="4.84"/><path class="cls-6" d="M7.76.06l.07,0M6.41,7,8,6M8,6,9.56,5M4.05,8.62l-.18,5m0,0-.05,1.2M8,1.26l.67.58m0,0L11.16,4"/></g></g></svg>