<svg xmlns="http://www.w3.org/2000/svg" viewBox="0 0 13.17 13.7"><defs><style>.cls-1{fill:#959595;}.cls-2{fill:#999;}.cls-3{fill:#888;}.cls-4{fill:none;stroke:#000;stroke-miterlimit:10;stroke-width:0;}</style></defs><title>Asset 1</title><g id="Layer_2" data-name="Layer 2"><g id="Layer_1-2" data-name="Layer 1"><polygon class="cls-1" points="9.24 0.56 8.44 0.9 9.25 1.45 11.46 2.95 12.27 2.59 13.17 3.19 4.62 6.99 3.75 6.33 4.63 5.94 4.73 3.96 6.88 3.04 8.12 2.51 6.85 1.63 3.48 3.04 1.69 3.73 0.81 4.1 0 3.49 8.41 0 9.24 0.56"/><polygon class="cls-2" points="8.44 0.9 9.24 0.56 9.25 1.45 8.44 0.9"/><polygon class="cls-3" points="0.43 10.06 0 3.49 0.81 4.1 1.21 10.7 0.43 10.06"/><polygon class="cls-2" points="0.81 4.1 1.69 3.73 2.05 10.32 1.21 10.7 0.81 4.1"/><polygon class="cls-3" points="3.98 11.88 2.05 10.32 1.69 3.73 4.63 5.94 3.75 6.33 3.98 11.88"/><polygon class="cls-3" points="6.85 1.63 8.12 2.51 6.88 3.04 6.85 1.63"/><polygon class="cls-3" points="3.75 6.33 4.62 6.99 4.87 13.7 4.03 13.01 3.98 11.88 3.75 6.33"/><polygon class="cls-2" points="6.85 1.63 6.88 3.04 4.73 3.96 3.48 3.04 6.85 1.63"/><polygon class="cls-1" points="3.48 3.04 4.73 3.96 4.63 5.94 1.69 3.73 3.48 3.04"/><polygon class="cls-2" points="4.87 13.7 4.62 6.99 13.17 3.19 13.06 9.75 4.87 13.7"/><path class="cls-4" d="M9.24.56,8.43.9m0-.9.83.56M0,3.49l.43,6.57M11.46,3l.81-.36M1.69,3.73.81,4.1m-.38,6,.78.64M0,3.49,8.41,0M.81,4.1,0,3.49M3.48,3,4.73,4M2.05,10.32,4,11.88M8.12,2.51,6.85,1.63M4.62,7l-.87-.66m3.1-4.7L6.88,3M4,13l.84.69m-3.18-10,.36,6.59M4.62,7l.25,6.71M3.75,6.33l.88-.39M6.85,1.63,3.48,3M.81,4.1l.4,6.6M9.24.56v.89M4.63,5.94,1.69,3.73m-.48,7,.84-.38M13.17,3.19l-.11,6.56M4.87,13.7l8.19-3.95m-.79-7.16.9.6M8.43.9l.82.55m0,0L11.46,3M4.73,4,6.88,3m0,0,1.24-.53M4,13,4,11.88m0,0L3.75,6.33M4.62,7l8.55-3.8M3.9,6.34,4.7,7"/></g></g></svg>